<svg width="21" height="20" viewBox="0 0 21 20" fill="none" xmlns="http://www.w3.org/2000/svg">
<g clip-path="url(#clip0_1_3034)">
<path d="M4.04167 0H16.9583C18.9167 0 20.5 1.58333 20.5 3.54167V15.9583C20.5 17.9167 18.9167 19.5 16.9583 19.5H4.04167C2.08333 19.5 0.5 17.9167 0.5 15.9583V3.54167C0.5 1.58333 2.08333 0 4.04167 0Z" fill="#470137"/>
<path d="M11.0164 5.12402L8.51636 9.24902L11.183 13.624C11.1997 13.6574 11.208 13.6907 11.1997 13.724C11.1914 13.7574 11.158 13.7324 11.108 13.7407H9.19969C9.06636 13.7407 8.97469 13.7324 8.91636 13.649C8.74136 13.299 8.55802 12.9574 8.38302 12.6074C8.20802 12.2657 8.01636 11.9157 7.81636 11.5574C7.61636 11.199 7.41636 10.8407 7.21636 10.474H7.19969C7.02469 10.8324 6.83302 11.1907 6.64136 11.549C6.44969 11.9074 6.25802 12.2657 6.07469 12.6157C5.88302 12.9657 5.69136 13.324 5.49969 13.6657C5.46636 13.749 5.39969 13.7574 5.30802 13.7574H3.47469C3.44136 13.7574 3.41636 13.774 3.41636 13.7324C3.40802 13.699 3.41636 13.6657 3.43302 13.6407L6.02469 9.39069L3.49969 5.11569C3.47469 5.08236 3.46636 5.04902 3.48302 5.03236C3.49969 5.00736 3.53302 4.99902 3.56636 4.99902H5.45802C5.49969 4.99902 5.54136 5.00736 5.57469 5.01569C5.60802 5.03236 5.63302 5.05736 5.65802 5.09069C5.81636 5.44902 5.99969 5.80736 6.19136 6.16569C6.39136 6.52402 6.58302 6.87402 6.79136 7.22402C6.99136 7.57402 7.17469 7.92402 7.34969 8.28236H7.36636C7.54136 7.91569 7.72469 7.55736 7.90802 7.20736C8.09136 6.85736 8.28302 6.50736 8.47469 6.15736C8.66636 5.80736 8.84969 5.44902 9.03302 5.10736C9.04136 5.07402 9.05802 5.04069 9.08302 5.02402C9.11636 5.00736 9.14969 4.99902 9.19136 5.00736H10.9497C10.9914 4.99902 11.033 5.02402 11.0414 5.06569C11.0497 5.07402 11.033 5.10736 11.0164 5.12402Z" fill="#FF61F6"/>
<path d="M14.8661 13.9164C14.2494 13.9247 13.6327 13.7997 13.0744 13.5414C12.5494 13.2997 12.1161 12.8997 11.8161 12.4081C11.5077 11.8997 11.3577 11.2664 11.3577 10.5081C11.3494 9.8914 11.5077 9.28307 11.8161 8.74973C12.1327 8.20807 12.5911 7.75807 13.1411 7.45807C13.7244 7.13307 14.4244 6.97473 15.2494 6.97473C15.2911 6.97473 15.3494 6.97473 15.4244 6.98307C15.4994 6.9914 15.5827 6.9914 15.6827 6.99973V4.3664C15.6827 4.30807 15.7077 4.27473 15.7661 4.27473H17.4577C17.4994 4.2664 17.5327 4.29973 17.5411 4.33307C17.5411 4.3414 17.5411 4.34973 17.5411 4.34973V12.2831C17.5411 12.4331 17.5494 12.5997 17.5577 12.7831C17.5744 12.9581 17.5827 13.1247 17.5911 13.2664C17.5911 13.3247 17.5661 13.3747 17.5077 13.3997C17.0744 13.5831 16.6161 13.7164 16.1494 13.7997C15.7244 13.8747 15.2994 13.9164 14.8661 13.9164ZM15.6827 12.2497V8.58307C15.6077 8.5664 15.5327 8.54973 15.4577 8.5414C15.3661 8.53307 15.2744 8.52473 15.1827 8.52473C14.8577 8.52473 14.5327 8.5914 14.2411 8.7414C13.9577 8.88307 13.7161 9.0914 13.5327 9.35807C13.3494 9.62473 13.2577 9.98307 13.2577 10.4164C13.2494 10.7081 13.2994 10.9997 13.3994 11.2747C13.4827 11.4997 13.6077 11.6997 13.7744 11.8664C13.9327 12.0164 14.1244 12.1331 14.3411 12.1997C14.5661 12.2747 14.7994 12.3081 15.0327 12.3081C15.1577 12.3081 15.2744 12.2997 15.3827 12.2914C15.4911 12.2997 15.5827 12.2831 15.6827 12.2497Z" fill="#FF61F6"/>
</g>
<defs>
<clipPath id="clip0_1_3034">
<rect width="20" height="19.5" fill="white" transform="translate(0.5)"/>
</clipPath>
</defs>
</svg>
