<svg width="21" height="22" viewBox="0 0 21 22" fill="none" xmlns="http://www.w3.org/2000/svg">
<g clip-path="url(#clip0_1_2951)">
<path d="M20.2596 10.4193L11.3968 1.49021L10.538 0.625L3.86637 7.34662L0.815567 10.4193C0.663181 10.5737 0.577637 10.7825 0.577637 11.0002C0.577637 11.2178 0.663181 11.4267 0.815567 11.581L6.91074 17.7218L10.538 21.3753L17.2088 14.6537L17.3127 14.5499L20.2596 11.5856C20.336 11.5092 20.3966 11.4184 20.438 11.3183C20.4793 11.2182 20.5006 11.1109 20.5006 11.0025C20.5006 10.8941 20.4793 10.7867 20.438 10.6866C20.3966 10.5866 20.336 10.4957 20.2596 10.4193ZM10.538 14.0682L7.49276 11.0002L10.538 7.93208L13.5824 11.0002L10.538 14.0682Z" fill="#2684FF"/>
<path d="M10.5375 7.93148C9.57978 6.96679 9.03988 5.65946 9.03575 4.29503C9.03161 2.93061 9.56358 1.61998 10.5155 0.649414L3.85205 7.35992L7.47844 11.0135L10.5375 7.93148Z" fill="url(#paint0_linear_1_2951)"/>
<path d="M13.5902 10.9912L10.5376 14.0676C11.499 15.0365 12.039 16.3503 12.039 17.7202C12.039 19.0902 11.499 20.404 10.5376 21.3729L17.2194 14.6448L13.5902 10.9912Z" fill="url(#paint1_linear_1_2951)"/>
</g>
<defs>
<linearGradient id="paint0_linear_1_2951" x1="9.99228" y1="4.82727" x2="5.70802" y2="9.07878" gradientUnits="userSpaceOnUse">
<stop offset="0.18" stop-color="#0052CC"/>
<stop offset="1" stop-color="#2684FF"/>
</linearGradient>
<linearGradient id="paint1_linear_1_2951" x1="776.604" y1="901.425" x2="1212.74" y2="1182.07" gradientUnits="userSpaceOnUse">
<stop offset="0.18" stop-color="#0052CC"/>
<stop offset="1" stop-color="#2684FF"/>
</linearGradient>
<clipPath id="clip0_1_2951">
<rect width="20" height="21" fill="white" transform="translate(0.5 0.5)"/>
</clipPath>
</defs>
</svg>
