<svg width="21" height="21" viewBox="0 0 21 21" fill="none" xmlns="http://www.w3.org/2000/svg">
<g clip-path="url(#clip0_1_2991)">
<path fill-rule="evenodd" clip-rule="evenodd" d="M7.83241 0.5C6.72684 0.500836 5.83208 1.41863 5.8329 2.54958C5.83208 3.68053 6.72766 4.59833 7.83323 4.59916H9.83356V2.55042C9.83437 1.41947 8.9388 0.501672 7.83241 0.5C7.83323 0.5 7.83323 0.5 7.83241 0.5V0.5ZM7.83241 5.96667H2.49984C1.39427 5.9675 0.498697 6.8853 0.499514 8.01625C0.49788 9.1472 1.39345 10.065 2.49902 10.0667H7.83241C8.93798 10.0658 9.83355 9.14803 9.83274 8.01708C9.83355 6.8853 8.93798 5.9675 7.83241 5.96667Z" fill="#36C5F0"/>
<path fill-rule="evenodd" clip-rule="evenodd" d="M20.4998 8.01625C20.5006 6.8853 19.605 5.9675 18.4994 5.96667C17.3938 5.9675 16.4983 6.8853 16.4991 8.01625V10.0667H18.4994C19.605 10.0658 20.5006 9.14803 20.4998 8.01625ZM15.1664 8.01625V2.54958C15.1672 1.41947 14.2724 0.501672 13.1668 0.5C12.0613 0.500836 11.1657 1.41863 11.1665 2.54958V8.01625C11.1649 9.1472 12.0604 10.065 13.166 10.0667C14.2716 10.0658 15.1672 9.14803 15.1664 8.01625Z" fill="#2EB67D"/>
<path fill-rule="evenodd" clip-rule="evenodd" d="M13.1659 21.0001C14.2714 20.9993 15.167 20.0815 15.1662 18.9505C15.167 17.8196 14.2714 16.9018 13.1659 16.901H11.1655V18.9505C11.1647 20.0807 12.0603 20.9984 13.1659 21.0001ZM13.1659 15.5326H18.4992C19.6048 15.5318 20.5004 14.614 20.4996 13.483C20.5012 12.3521 19.6056 11.4343 18.5001 11.4326H13.1667C12.0611 11.4335 11.1655 12.3513 11.1663 13.4822C11.1655 14.614 12.0603 15.5318 13.1659 15.5326Z" fill="#ECB22E"/>
<path fill-rule="evenodd" clip-rule="evenodd" d="M0.499512 13.4832C0.498695 14.6141 1.39427 15.5319 2.49984 15.5328C3.60541 15.5319 4.50098 14.6141 4.50017 13.4832V11.4336H2.49984C1.39427 11.4344 0.498695 12.3522 0.499512 13.4832ZM5.8329 13.4832V18.9499C5.83127 20.0808 6.72684 20.9986 7.83241 21.0003C8.93798 20.9994 9.83355 20.0816 9.83274 18.9507V13.4849C9.83437 12.3539 8.9388 11.4361 7.83323 11.4344C6.72684 11.4344 5.83208 12.3522 5.8329 13.4832C5.8329 13.484 5.8329 13.4832 5.8329 13.4832Z" fill="#E01E5A"/>
</g>
<defs>
<clipPath id="clip0_1_2991">
<rect width="20" height="20.5" fill="white" transform="translate(0.5 0.5)"/>
</clipPath>
</defs>
</svg>
