<svg width="16" height="16" viewBox="0 0 16 16" fill="none" xmlns="http://www.w3.org/2000/svg">
<path d="M13.7523 10.665C13.7004 10.6025 13.6495 10.54 13.5995 10.4796C12.912 9.64808 12.496 9.14621 12.496 6.79215C12.496 5.5734 12.2045 4.5734 11.6298 3.8234C11.206 3.26934 10.6332 2.84902 9.8782 2.5384C9.86849 2.53299 9.85981 2.5259 9.85258 2.51746C9.58102 1.60809 8.83789 0.999023 7.99977 0.999023C7.16164 0.999023 6.41883 1.60809 6.14727 2.51652C6.14002 2.52466 6.13146 2.53152 6.12195 2.53684C4.36008 3.26215 3.50383 4.65371 3.50383 6.79121C3.50383 9.14621 3.08852 9.64808 2.40039 10.4787C2.35039 10.539 2.29945 10.6003 2.24758 10.664C2.11358 10.8256 2.02868 11.0222 2.00293 11.2306C1.97718 11.4389 2.01165 11.6503 2.10227 11.8396C2.29508 12.2459 2.70602 12.4981 3.17508 12.4981H12.8279C13.2948 12.4981 13.7029 12.2462 13.8963 11.8418C13.9873 11.6524 14.0221 11.4409 13.9966 11.2323C13.9711 11.0237 13.8863 10.8268 13.7523 10.665V10.665Z" fill="#4FD1C5"/>
<path d="M8.00011 15C8.45168 14.9996 8.89473 14.8771 9.28228 14.6453C9.66983 14.4135 9.98741 14.0811 10.2014 13.6834C10.2114 13.6644 10.2164 13.643 10.2158 13.6215C10.2152 13.5999 10.209 13.5789 10.1979 13.5604C10.1868 13.542 10.171 13.5267 10.1523 13.5161C10.1335 13.5055 10.1123 13.5 10.0907 13.5H5.91011C5.88852 13.4999 5.86728 13.5054 5.84846 13.516C5.82964 13.5266 5.81388 13.5418 5.80271 13.5603C5.79154 13.5788 5.78534 13.5998 5.78472 13.6214C5.7841 13.643 5.78908 13.6644 5.79917 13.6834C6.01309 14.0811 6.33062 14.4134 6.71811 14.6452C7.10559 14.877 7.54859 14.9996 8.00011 15Z" fill="#4FD1C5"/>
</svg>
