<svg width="16" height="17" viewBox="0 0 16 17" fill="none" xmlns="http://www.w3.org/2000/svg">
<path d="M1 12.249C1 12.7132 1.18437 13.1583 1.51256 13.4865C1.84075 13.8146 2.28587 13.999 2.75 13.999H13.25C13.7141 13.999 14.1592 13.8146 14.4874 13.4865C14.8156 13.1583 15 12.7132 15 12.249V7.43652H1V12.249ZM3.0625 9.87402C3.0625 9.62538 3.16127 9.38693 3.33709 9.21111C3.5129 9.0353 3.75136 8.93652 4 8.93652H5.5C5.74864 8.93652 5.9871 9.0353 6.16291 9.21111C6.33873 9.38693 6.4375 9.62538 6.4375 9.87402V10.499C6.4375 10.7477 6.33873 10.9861 6.16291 11.1619C5.9871 11.3378 5.74864 11.4365 5.5 11.4365H4C3.75136 11.4365 3.5129 11.3378 3.33709 11.1619C3.16127 10.9861 3.0625 10.7477 3.0625 10.499V9.87402Z" fill="#F6AD55"/>
<path d="M13.25 2.99902H2.75C2.28587 2.99902 1.84075 3.1834 1.51256 3.51159C1.18437 3.83978 1 4.28489 1 4.74902V5.56152H15V4.74902C15 4.28489 14.8156 3.83978 14.4874 3.51159C14.1592 3.1834 13.7141 2.99902 13.25 2.99902V2.99902Z" fill="#F6AD55"/>
</svg>
