<svg width="25" height="9" viewBox="0 0 25 9" fill="none" xmlns="http://www.w3.org/2000/svg">
<path fill-rule="evenodd" clip-rule="evenodd" d="M12.6707 2.96362C12.6567 4.15067 13.6529 4.8131 14.4032 5.20696C15.1743 5.61111 15.4332 5.87026 15.4303 6.23159C15.4244 6.78471 14.8152 7.02874 14.2451 7.03824C13.2504 7.05487 12.6721 6.74902 12.2123 6.51765L11.8541 8.32353C12.3154 8.55259 13.1695 8.75229 14.0553 8.761C16.1344 8.761 17.4946 7.65555 17.502 5.94157C17.5101 3.76638 14.7086 3.64591 14.7277 2.6736C14.7343 2.37883 14.9955 2.0642 15.5679 1.98418C15.8511 1.9438 16.6331 1.91286 17.5196 2.35264L17.8676 0.605408C17.3909 0.418375 16.778 0.239258 16.0152 0.239258C14.0582 0.239258 12.6818 1.35974 12.6707 2.96362ZM21.2114 0.389809C20.8317 0.389809 20.5117 0.628367 20.369 0.994452L17.399 8.63261H19.4766L19.89 7.40195H22.4289L22.6687 8.63261H24.4999L22.9019 0.389809H21.2114ZM21.5019 2.61653L22.1015 5.71172H20.4595L21.5019 2.61653ZM10.1517 0.389809L8.51406 8.63261H10.4938L12.1307 0.389809H10.1517ZM7.22291 0.389809L5.16221 6.00016L4.32866 1.22978C4.23084 0.697309 3.8446 0.389809 3.41567 0.389809H0.046979L-0.00012207 0.629159C0.691452 0.790793 1.47717 1.05152 1.95314 1.33045C2.24445 1.5008 2.32762 1.64976 2.42323 2.0547L4.00201 8.63261H6.09438L9.30198 0.389809H7.22291Z" fill="#4318FF"/>
</svg>
